<svg xmlns="http://www.w3.org/2000/svg" viewBox="0 0 1077 323" role="img" aria-labelledby="title desc">
  <title id="title">Disclera monochrome logo</title>
  <desc id="desc">Single-color reproduction of the approved Disclera logo.</desc>
<path d="M0 0 C0.905 -0.01 1.809 -0.019 2.742 -0.029 C3.727 -0.033 4.712 -0.038 5.728 -0.042 C6.745 -0.048 7.763 -0.054 8.781 -0.059 C10.92 -0.07 13.059 -0.076 15.197 -0.079 C17.929 -0.085 20.66 -0.109 23.391 -0.137 C25.497 -0.156 27.602 -0.161 29.707 -0.162 C31.201 -0.167 32.695 -0.186 34.189 -0.204 C43.09 -0.175 43.09 -0.175 46.743 3.161 C49.957 7.738 50.171 12.123 50.124 17.569 C50.129 18.401 50.133 19.233 50.138 20.091 C50.15 22.872 50.141 25.653 50.131 28.435 C50.135 30.433 50.141 32.431 50.147 34.429 C50.161 39.292 50.158 44.154 50.149 49.017 C50.142 52.978 50.141 56.94 50.145 60.901 C50.145 61.466 50.146 62.031 50.146 62.614 C50.147 63.762 50.148 64.911 50.149 66.059 C50.157 76.829 50.148 87.599 50.132 98.369 C50.118 107.569 50.12 116.769 50.134 125.969 C50.15 136.68 50.157 147.391 50.147 158.103 C50.146 159.251 50.146 160.399 50.145 161.548 C50.144 162.113 50.144 162.677 50.143 163.259 C50.141 167.199 50.145 171.139 50.152 175.08 C50.161 179.906 50.158 184.733 50.142 189.559 C50.134 192.012 50.133 194.465 50.141 196.918 C50.199 215.404 49.032 233.369 40.743 250.161 C40.458 250.751 40.174 251.341 39.88 251.948 C35.019 261.806 28.532 269.476 20.743 277.161 C20.323 277.588 19.903 278.014 19.47 278.454 C3.221 294.863 -18.919 302.49 -41.257 306.161 C-41.849 306.264 -42.441 306.367 -43.052 306.474 C-76.574 311.547 -114.396 305.788 -142.151 285.752 C-144.132 284.271 -146.07 282.744 -147.99 281.186 C-149.109 280.281 -150.248 279.403 -151.39 278.528 C-162.238 269.788 -169.954 257.412 -176.257 245.161 C-176.379 244.926 -176.379 244.926 -176.998 243.738 C-182.279 233.42 -185.529 222.073 -188.007 210.786 C-188.122 210.264 -188.238 209.742 -188.357 209.205 C-190.423 199.144 -190.443 189.02 -190.442 178.795 C-190.444 176.43 -190.463 174.065 -190.481 171.7 C-190.53 158.935 -189.315 146.876 -185.944 134.536 C-185.724 133.725 -185.504 132.915 -185.277 132.08 C-177.162 103.029 -158.275 78.976 -132.011 64.161 C-123.917 59.771 -115.636 56.36 -106.757 53.911 C-106.213 53.76 -105.669 53.609 -105.108 53.453 C-93.717 50.548 -82.154 49.777 -70.444 49.849 C-69.79 49.851 -69.136 49.854 -68.462 49.856 C-47.372 49.98 -21.947 53.47 -6.257 69.161 C-5.062 62.838 -5.14 56.561 -5.182 50.155 C-5.195 48.137 -5.201 46.12 -5.206 44.103 C-5.217 39.831 -5.236 35.558 -5.257 31.286 C-5.28 26.313 -5.301 21.34 -5.313 16.367 C-5.319 14.376 -5.332 12.386 -5.344 10.395 C-5.348 9.185 -5.351 7.974 -5.354 6.763 C-5.36 6.207 -5.365 5.652 -5.37 5.079 C-5.37 3.772 -5.319 2.466 -5.257 1.161 C-3.695 -0.4 -2.171 0.019 0 0 Z M-126.257 124.161 C-129.835 128.636 -131.965 133.585 -133.944 138.911 C-134.046 139.179 -134.046 139.179 -134.558 140.535 C-138.316 151.278 -138.604 162.259 -138.573 173.513 C-138.569 175.828 -138.593 178.142 -138.618 180.456 C-138.702 199.848 -135.963 220.426 -122.257 235.161 C-121.735 235.733 -121.213 236.306 -120.675 236.896 C-119.257 238.161 -119.257 238.161 -117.257 238.161 C-117.257 224.631 -117.257 211.101 -117.257 197.161 C-97.073 197.29 -97.073 197.29 -88.45 197.37 C-82.573 197.424 -76.696 197.475 -70.819 197.508 C-66.079 197.534 -61.34 197.574 -56.6 197.624 C-54.794 197.641 -52.989 197.652 -51.183 197.659 C-48.648 197.668 -46.114 197.696 -43.579 197.729 C-42.837 197.727 -42.096 197.726 -41.332 197.724 C-35.503 197.829 -30.192 199.077 -25.882 203.224 C-23.789 205.719 -23.137 207.234 -23.052 210.417 C-23.042 210.748 -23.042 210.748 -22.991 212.419 C-22.974 213.131 -22.958 213.842 -22.94 214.575 C-22.92 215.305 -22.899 216.034 -22.877 216.786 C-22.812 219.119 -22.753 221.453 -22.694 223.786 C-22.651 225.367 -22.608 226.948 -22.563 228.528 C-22.456 232.406 -22.355 236.283 -22.257 240.161 C-17.168 239.061 -15.346 236.183 -12.257 232.161 C-11.871 231.673 -11.486 231.184 -11.089 230.681 C-4.685 221.922 -4.113 211.24 -4.08 200.789 C-4.077 200.332 -4.077 200.332 -4.06 198.021 C-4.04 195.019 -4.029 192.016 -4.019 189.013 C-4.015 187.972 -4.01 186.931 -4.006 185.89 C-3.987 181 -3.973 176.11 -3.965 171.219 C-3.955 165.602 -3.928 159.985 -3.888 154.367 C-3.858 150.005 -3.843 145.644 -3.84 141.281 C-3.837 138.685 -3.829 136.089 -3.803 133.492 C-3.775 130.592 -3.78 127.693 -3.787 124.792 C-3.774 123.948 -3.761 123.103 -3.748 122.232 C-3.8 116.253 -5.091 111.287 -8.257 106.161 C-12.877 101.904 -17.279 101.012 -23.434 101 C-24.056 100.995 -24.677 100.99 -25.318 100.985 C-27.377 100.97 -29.436 100.964 -31.495 100.958 C-32.203 100.955 -32.911 100.952 -33.64 100.949 C-37.398 100.934 -41.155 100.925 -44.912 100.921 C-48.757 100.915 -52.602 100.892 -56.446 100.863 C-59.431 100.844 -62.416 100.839 -65.401 100.838 C-66.816 100.835 -68.231 100.827 -69.645 100.813 C-92.496 100.614 -110.781 106.644 -126.257 124.161 Z " fill="#25352D" transform="translate(198.2568359375,7.8388671875)"/>
<path d="M0 0 C6.93 0 13.86 0 21 0 C21 52.8 21 105.6 21 160 C14.07 160 7.14 160 0 160 C0 155.05 0 150.1 0 145 C-0.66 145 -1.32 145 -2 145 C-2.268 145.599 -2.536 146.199 -2.812 146.816 C-6.667 153.904 -15.348 158.146 -22.74 160.571 C-36.744 164.515 -52.788 163.254 -65.727 156.645 C-79.305 148.994 -88.068 137.762 -92.519 122.885 C-96.738 106.364 -95.686 88.589 -87.198 73.582 C-78.689 59.646 -66.576 51.84 -51.116 47.467 C-38.903 44.771 -23.977 46.029 -13.199 52.648 C-8.511 55.74 -4.313 59.406 0 63 C0 42.21 0 21.42 0 0 Z M-62.119 76.206 C-69.85 85.314 -73.577 95.402 -72.918 107.498 C-71.943 118.599 -67.389 128.482 -59 136 C-49.173 142.74 -39.12 144.619 -27.397 142.744 C-18.57 140.785 -11.393 134.914 -6.336 127.59 C-5.102 125.429 -4.013 123.271 -3 121 C-2.587 120.113 -2.175 119.226 -1.75 118.312 C1.785 107.413 0.471 96.371 -4 86 C-8.92 76.514 -15.912 70.475 -26 67 C-38.699 63.942 -52.943 66.321 -62.119 76.206 Z " fill="#25352D" transform="translate(417,100)"/>
<path d="M0 0 C0.636 0.44 1.271 0.879 1.926 1.332 C12.346 9.35 17.263 22.682 20 35 C20 41.27 20 47.54 20 54 C-9.04 54.33 -38.08 54.66 -68 55 C-65.672 66.641 -62.976 73.287 -53.637 80.527 C-47.219 84.497 -40.099 85.56 -32.688 85.5 C-32.275 85.497 -32.275 85.497 -30.185 85.483 C-20.9 85.213 -13.68 82.917 -6.875 76.375 C-5.042 74.359 -3.462 72.298 -2 70 C2.328 70.644 5.884 72.175 9.812 74.062 C10.41 74.344 11.007 74.626 11.623 74.916 C13.084 75.606 14.543 76.302 16 77 C14.729 81.579 13.175 84.545 9.938 88 C9.54 88.43 9.143 88.86 8.734 89.303 C-1.061 99.573 -14.079 104.784 -28.148 105.301 C-29.891 105.32 -31.633 105.324 -33.375 105.312 C-34.293 105.308 -35.21 105.303 -36.156 105.298 C-51.562 105.032 -64.834 99.742 -76 89 C-81.243 83.349 -85.037 77.099 -88 70 C-88.16 69.62 -88.16 69.62 -88.973 67.695 C-94.154 52.609 -92.301 34.241 -85.609 19.953 C-78.923 6.514 -67.55 -2.697 -53.578 -7.902 C-35.209 -13.532 -15.639 -10.989 0 0 Z M-61.312 20.312 C-66.167 25.865 -68 30.651 -68 38 C-46.22 38 -24.44 38 -2 38 C-3.226 26.967 -5.646 20.955 -14 14 C-28.581 2.961 -49.618 7.648 -61.312 20.312 Z " fill="#25352D" transform="translate(859,157)"/>
<path d="M0 0 C0.28 0.209 0.28 0.209 1.699 1.266 C2.229 1.621 2.759 1.977 3.305 2.344 C11.091 8.028 14.722 17.233 16.436 26.416 C17.369 32.969 17.056 39.68 16.992 46.281 C16.987 47.99 16.982 49.7 16.979 51.409 C16.968 55.867 16.939 60.326 16.905 64.784 C16.874 69.349 16.861 73.915 16.846 78.48 C16.814 87.409 16.763 96.337 16.699 105.266 C13.387 105.295 10.074 105.312 6.762 105.328 C5.816 105.337 4.871 105.345 3.896 105.354 C3.447 105.355 3.447 105.355 1.172 105.363 C0.756 105.366 0.756 105.366 -1.351 105.379 C-3.301 105.266 -3.301 105.266 -4.301 104.266 C-4.537 102.072 -4.722 99.903 -4.863 97.703 C-4.906 97.088 -4.95 96.472 -4.994 95.838 C-5.1 94.314 -5.201 92.79 -5.301 91.266 C-5.762 91.785 -6.224 92.305 -6.699 92.84 C-15.139 101.863 -25.943 106.862 -38.355 107.551 C-50.952 107.949 -62.336 106.738 -72.301 98.266 C-79.047 91.914 -82.28 86.095 -82.7 76.861 C-82.841 69.529 -81.925 63.757 -78.301 57.266 C-78.024 56.768 -77.746 56.27 -77.461 55.758 C-71.824 47.498 -60.883 43.783 -51.505 41.906 C-36.007 39.207 -19.964 40.071 -4.301 40.266 C-4.593 38.026 -4.892 35.788 -5.195 33.551 C-5.236 33.236 -5.236 33.236 -5.442 31.643 C-6.367 24.91 -8.095 19.684 -13.613 15.391 C-21.567 10.418 -30.771 10.169 -39.859 11.695 C-47.253 13.771 -52.974 18.584 -56.801 25.203 C-57.306 26.221 -57.807 27.242 -58.301 28.266 C-60.884 28.126 -63.468 27.978 -66.051 27.828 C-66.78 27.789 -67.51 27.749 -68.262 27.709 C-68.616 27.688 -68.616 27.688 -70.41 27.582 C-71.06 27.545 -71.709 27.509 -72.378 27.471 C-74.422 27.253 -76.32 26.807 -78.301 26.266 C-76.518 15.26 -70.374 6.861 -61.671 0.216 C-44.587 -11.628 -17.066 -11.878 0 0 Z M-57.738 64.328 C-60.639 67.925 -60.658 71.471 -60.562 75.988 C-60.139 79.673 -59.045 81.78 -56.301 84.266 C-48.495 90.238 -39.733 90.456 -30.301 89.266 C-21.687 87.704 -14.897 83.145 -9.734 76.141 C-6.335 70.873 -5.142 67.365 -5.238 61.078 C-5.243 60.519 -5.247 59.961 -5.252 59.385 C-5.264 58.012 -5.282 56.639 -5.301 55.266 C-47.655 54.962 -47.655 54.962 -57.738 64.328 Z " fill="#25352D" transform="translate(1052.30078125,154.734375)"/>
<path d="M0 0 C5.572 4.365 9.768 10.464 12.41 16.992 C12.41 17.982 12.41 18.972 12.41 19.992 C9.62 20.83 6.828 21.662 4.035 22.492 C3.241 22.731 2.447 22.969 1.629 23.215 C1.249 23.328 1.249 23.328 -0.676 23.898 C-1.378 24.108 -2.079 24.317 -2.802 24.533 C-4.59 24.992 -4.59 24.992 -6.59 24.992 C-7.887 23.164 -7.887 23.164 -9.34 20.742 C-13.293 14.63 -17.483 11.717 -24.59 9.992 C-33.072 8.961 -42.425 8.789 -49.59 13.992 C-52.316 16.48 -52.799 19.419 -53.027 22.992 C-52.864 26.218 -52.458 28.513 -50.119 30.826 C-42.765 36.433 -31.729 37.821 -22.909 39.844 C2.958 45.821 2.958 45.821 9.906 56.234 C14.316 63.854 15.894 71.798 14.094 80.526 C11.621 89.656 7.493 95.185 -0.646 99.943 C-14.431 107.558 -32.735 108.371 -47.777 104.305 C-59.127 100.947 -69.57 94.66 -75.652 84.242 C-77.38 81.009 -77.59 79.851 -77.59 75.992 C-71.65 74.342 -65.71 72.692 -59.59 70.992 C-58.579 72.374 -57.569 73.756 -56.527 75.18 C-49.465 84.327 -41.704 86.698 -30.582 88.277 C-24.469 88.617 -16.427 86.733 -11.527 83.055 C-9.097 80.468 -7.71 78.392 -7.402 74.809 C-7.718 71.017 -8.02 67.915 -10.84 65.18 C-17.417 60.693 -25.949 59.348 -33.574 57.621 C-63.747 50.769 -63.747 50.769 -71.59 38.992 C-75.91 31.797 -76.333 23.587 -74.434 15.539 C-71.57 6.895 -66.426 0.589 -58.59 -4.008 C-40.488 -12.6 -16.514 -11.84 0 0 Z " fill="#25352D" transform="translate(577.58984375,156.0078125)"/>
<path d="M0 0 C0.83 0.006 1.659 0.011 2.514 0.017 C16.876 0.299 30.092 5.099 40.641 15.012 C44.333 18.941 47.025 23.655 49.688 28.312 C47.033 31.469 43.868 32.847 40.188 34.5 C39.606 34.773 39.025 35.045 38.426 35.326 C35.547 36.641 33.939 37.312 30.688 37.312 C29.363 35.773 29.363 35.773 28 33.688 C22.187 25.637 15.464 21.915 5.688 20.312 C-5.779 19.159 -15.377 22.041 -24.312 29.312 C-30.535 34.967 -34.762 43.414 -35.437 51.869 C-35.994 64.323 -34.431 74.36 -26.312 84.312 C-20.335 90.749 -12.079 95.016 -3.246 95.551 C6.95 95.873 15.792 94.231 24.117 87.816 C27.079 84.98 29.368 81.676 31.688 78.312 C34.504 79.426 37.315 80.555 40.125 81.688 C40.526 81.846 40.526 81.846 42.557 82.648 C42.939 82.803 42.939 82.803 44.871 83.586 C45.578 83.869 46.285 84.152 47.013 84.443 C48.688 85.312 48.688 85.312 49.688 87.312 C44.236 99.337 34.563 107.386 22.358 112.101 C7.488 117.587 -11.157 117.493 -25.609 110.836 C-39.084 104.243 -49.414 94.021 -54.73 79.766 C-55.777 76.65 -56.586 73.517 -57.312 70.312 C-57.462 69.659 -57.612 69.005 -57.766 68.332 C-58.07 66.645 -58.222 65.024 -58.312 63.312 C-58.364 62.542 -58.416 61.771 -58.469 60.977 C-59.025 45.156 -54.493 30.834 -43.938 18.938 C-31.924 6.143 -17.58 -0.126 0 0 Z " fill="#25352D" transform="translate(661.3125,146.6875)"/>
<path d="M0 0 C2.393 0.021 4.785 0.041 7.25 0.062 C7.25 6.993 7.25 13.923 7.25 21.062 C4.177 21.31 1.104 21.558 -2.062 21.812 C-13.959 22.941 -24.076 25.144 -32.75 34.062 C-37.17 40.323 -38.88 45.787 -38.955 53.392 C-38.96 53.704 -38.96 53.704 -38.985 55.285 C-39.017 57.341 -39.042 59.397 -39.066 61.453 C-39.087 62.882 -39.108 64.311 -39.129 65.741 C-39.184 69.495 -39.234 73.25 -39.282 77.005 C-39.333 80.839 -39.388 84.674 -39.443 88.508 C-39.551 96.026 -39.652 103.544 -39.75 111.062 C-42.722 111.087 -45.695 111.105 -48.667 111.117 C-49.679 111.122 -50.691 111.129 -51.702 111.138 C-53.154 111.15 -54.607 111.155 -56.059 111.16 C-56.933 111.165 -57.808 111.171 -58.709 111.176 C-60.75 111.062 -60.75 111.062 -61.75 110.062 C-61.846 108.646 -61.872 107.224 -61.87 105.804 C-61.872 104.886 -61.873 103.967 -61.874 103.021 C-61.871 101.995 -61.867 100.969 -61.864 99.943 C-61.863 98.869 -61.863 97.795 -61.864 96.721 C-61.864 93.798 -61.858 90.874 -61.851 87.951 C-61.845 84.899 -61.845 81.846 -61.843 78.794 C-61.84 73.011 -61.832 67.227 -61.822 61.444 C-61.811 54.861 -61.805 48.278 -61.8 41.696 C-61.79 28.151 -61.772 14.607 -61.75 1.062 C-54.49 1.062 -47.23 1.062 -39.75 1.062 C-39.585 4.032 -39.585 4.032 -38.75 19.062 C-37.781 17.866 -36.811 16.67 -35.812 15.438 C-29.131 7.859 -21.265 3.984 -11.75 1.062 C-11.446 0.963 -11.446 0.963 -9.91 0.461 C-6.611 -0.147 -3.345 -0.041 0 0 Z " fill="#25352D" transform="translate(957.75,148.9375)"/>
<path d="M0 0 C6.93 0 13.86 0 21 0 C21 52.8 21 105.6 21 160 C14.07 160 7.14 160 0 160 C0 107.2 0 54.4 0 0 Z " fill="#25352D" transform="translate(727,100)"/>
<path d="M0 0 C6.93 0 13.86 0 21 0 C21.023 14.195 21.041 28.389 21.052 42.584 C21.057 49.174 21.064 55.764 21.075 62.355 C21.085 68.097 21.092 73.839 21.094 79.581 C21.095 82.624 21.098 85.666 21.106 88.708 C21.112 91.568 21.115 94.429 21.113 97.289 C21.113 98.342 21.115 99.394 21.119 100.447 C21.124 101.878 21.122 103.31 21.12 104.742 C21.121 105.545 21.122 106.347 21.123 107.175 C21 109 21 109 20 110 C18.511 110.087 17.019 110.107 15.527 110.098 C14.628 110.094 13.729 110.091 12.803 110.088 C12.33 110.084 12.33 110.084 9.938 110.062 C8.988 110.058 8.039 110.053 7.061 110.049 C4.707 110.037 2.354 110.02 0 110 C-1.098 99.016 -1.147 88.082 -1.133 77.051 C-1.133 75.143 -1.134 73.235 -1.136 71.327 C-1.137 67.351 -1.135 63.374 -1.13 59.398 C-1.125 54.829 -1.127 50.261 -1.132 45.692 C-1.137 41.255 -1.137 36.819 -1.134 32.382 C-1.133 30.512 -1.134 28.642 -1.136 26.772 C-1.139 24.153 -1.135 21.534 -1.129 18.915 C-1.131 18.158 -1.133 17.401 -1.136 16.621 C-1.114 10.967 -0.57 5.697 0 0 Z " fill="#25352D" transform="translate(462,150)"/>
<path d="M0 0 C0.575 0.002 1.15 0.004 1.743 0.007 C5.479 0.023 9.214 0.058 12.95 0.102 C14.983 0.126 17.016 0.144 19.049 0.163 C22.474 0.198 25.898 0.258 29.323 0.335 C30.641 0.361 31.96 0.382 33.279 0.395 C35.132 0.417 36.983 0.463 38.836 0.516 C39.108 0.516 39.108 0.516 40.487 0.519 C44.691 0.681 47.125 2.157 49.938 5.125 C52.718 9.679 52.163 14.776 52.062 19.938 C52.053 20.821 52.044 21.705 52.035 22.615 C52.012 24.785 51.979 26.955 51.938 29.125 C51.672 28.986 51.672 28.986 50.328 28.285 C49.622 27.923 48.915 27.561 48.188 27.188 C47.491 26.828 46.795 26.468 46.078 26.098 C42.013 24.251 38.211 23.965 33.792 23.92 C33.187 23.91 32.581 23.9 31.958 23.89 C29.967 23.858 27.976 23.833 25.984 23.809 C24.6 23.788 23.216 23.767 21.831 23.746 C18.195 23.691 14.558 23.641 10.922 23.593 C7.208 23.542 3.495 23.487 -0.219 23.432 C-7.5 23.324 -14.781 23.223 -22.062 23.125 C-22.15 20.021 -22.203 16.917 -22.25 13.812 C-22.275 12.931 -22.3 12.05 -22.326 11.143 C-22.336 10.295 -22.346 9.447 -22.355 8.574 C-22.371 7.794 -22.387 7.014 -22.403 6.21 C-21.977 3.602 -21.097 2.751 -19.062 1.125 C-13.294 -0.965 -6.076 -0.031 0 0 Z " fill="#25352D" transform="translate(124.0625,174.875)"/>
<path d="M0 0 C0.392 -0.006 0.392 -0.006 2.377 -0.038 C3.221 -0.036 4.065 -0.033 4.934 -0.03 C5.806 -0.035 6.678 -0.04 7.576 -0.045 C9.42 -0.052 11.264 -0.051 13.108 -0.042 C15.925 -0.033 18.739 -0.062 21.555 -0.094 C23.348 -0.096 25.141 -0.095 26.934 -0.092 C27.774 -0.103 28.614 -0.115 29.479 -0.126 C33.196 -0.082 36.031 -0.036 39.075 2.248 C42.057 5.476 42.192 7.757 42.165 12.072 C42.161 12.965 42.158 13.857 42.155 14.777 C42.151 15.241 42.151 15.241 42.129 17.592 C42.125 18.532 42.12 19.472 42.116 20.441 C42.104 22.762 42.087 25.083 42.067 27.404 C38.067 25.404 38.067 25.404 36.19 24.354 C33.898 23.329 32.345 23.131 29.849 23.085 C29.029 23.065 28.208 23.045 27.363 23.025 C26.486 23.013 25.61 23.002 24.708 22.99 C23.803 22.971 22.899 22.951 21.967 22.931 C19.084 22.872 16.2 22.825 13.317 22.779 C11.36 22.741 9.403 22.702 7.446 22.662 C2.653 22.566 -2.14 22.481 -6.933 22.404 C-7.02 19.3 -7.074 16.196 -7.121 13.092 C-7.146 12.21 -7.171 11.329 -7.197 10.422 C-7.206 9.574 -7.216 8.727 -7.226 7.853 C-7.242 7.073 -7.257 6.293 -7.274 5.489 C-6.579 1.234 -4.046 0.032 0 0 Z " fill="#25352D" transform="translate(134.93310546875,146.595947265625)"/>
<path d="M0 0 C3.424 3.275 4.712 5.814 5 10.562 C4.861 15.89 2.45 18.797 -1.125 22.5 C-5.008 24.549 -8.991 25.227 -13.309 24.25 C-17.354 22.719 -20.477 20.657 -22.375 16.688 C-23.862 11.815 -23.676 7.79 -21.395 3.227 C-19.361 0.157 -16.89 -1.633 -13.562 -3.125 C-8.463 -3.562 -4.109 -3.273 0 0 Z " fill="#25352D" transform="translate(481.375,106.3125)"/>
</svg>
