<svg xmlns="http://www.w3.org/2000/svg" viewBox="0 0 270 323" role="img" aria-labelledby="title desc">
  <title id="title">Disclera mark</title>
  <desc id="desc">Approved option 3 index-page d monogram.</desc>
<path d="M0 0 C0.905 -0.01 1.809 -0.019 2.742 -0.029 C3.727 -0.033 4.712 -0.038 5.728 -0.042 C6.745 -0.048 7.763 -0.054 8.781 -0.059 C10.92 -0.07 13.059 -0.076 15.197 -0.079 C17.929 -0.085 20.66 -0.109 23.391 -0.137 C25.497 -0.156 27.602 -0.161 29.707 -0.162 C31.201 -0.167 32.695 -0.186 34.189 -0.204 C43.09 -0.175 43.09 -0.175 46.743 3.161 C49.957 7.738 50.171 12.123 50.124 17.569 C50.129 18.401 50.133 19.233 50.138 20.091 C50.15 22.872 50.141 25.653 50.131 28.435 C50.135 30.433 50.141 32.431 50.147 34.429 C50.161 39.292 50.158 44.154 50.149 49.017 C50.142 52.978 50.141 56.94 50.145 60.901 C50.145 61.466 50.146 62.031 50.146 62.614 C50.147 63.762 50.148 64.911 50.149 66.059 C50.157 76.829 50.148 87.599 50.132 98.369 C50.118 107.569 50.12 116.769 50.134 125.969 C50.15 136.68 50.157 147.391 50.147 158.103 C50.146 159.251 50.146 160.399 50.145 161.548 C50.144 162.113 50.144 162.677 50.143 163.259 C50.141 167.199 50.145 171.139 50.152 175.08 C50.161 179.906 50.158 184.733 50.142 189.559 C50.134 192.012 50.133 194.465 50.141 196.918 C50.199 215.404 49.032 233.369 40.743 250.161 C40.458 250.751 40.174 251.341 39.88 251.948 C35.019 261.806 28.532 269.476 20.743 277.161 C20.323 277.588 19.903 278.014 19.47 278.454 C3.221 294.863 -18.919 302.49 -41.257 306.161 C-41.849 306.264 -42.441 306.367 -43.052 306.474 C-76.574 311.547 -114.396 305.788 -142.151 285.752 C-144.132 284.271 -146.07 282.744 -147.99 281.186 C-149.109 280.281 -150.248 279.403 -151.39 278.528 C-162.238 269.788 -169.954 257.412 -176.257 245.161 C-176.379 244.926 -176.379 244.926 -176.998 243.738 C-182.279 233.42 -185.529 222.073 -188.007 210.786 C-188.122 210.264 -188.238 209.742 -188.357 209.205 C-190.423 199.144 -190.443 189.02 -190.442 178.795 C-190.444 176.43 -190.463 174.065 -190.481 171.7 C-190.53 158.935 -189.315 146.876 -185.944 134.536 C-185.724 133.725 -185.504 132.915 -185.277 132.08 C-177.162 103.029 -158.275 78.976 -132.011 64.161 C-123.917 59.771 -115.636 56.36 -106.757 53.911 C-106.213 53.76 -105.669 53.609 -105.108 53.453 C-93.717 50.548 -82.154 49.777 -70.444 49.849 C-69.79 49.851 -69.136 49.854 -68.462 49.856 C-47.372 49.98 -21.947 53.47 -6.257 69.161 C-5.062 62.838 -5.14 56.561 -5.182 50.155 C-5.195 48.137 -5.201 46.12 -5.206 44.103 C-5.217 39.831 -5.236 35.558 -5.257 31.286 C-5.28 26.313 -5.301 21.34 -5.313 16.367 C-5.319 14.376 -5.332 12.386 -5.344 10.395 C-5.348 9.185 -5.351 7.974 -5.354 6.763 C-5.36 6.207 -5.365 5.652 -5.37 5.079 C-5.37 3.772 -5.319 2.466 -5.257 1.161 C-3.695 -0.4 -2.171 0.019 0 0 Z M-126.257 124.161 C-129.835 128.636 -131.965 133.585 -133.944 138.911 C-134.046 139.179 -134.046 139.179 -134.558 140.535 C-138.316 151.278 -138.604 162.259 -138.573 173.513 C-138.569 175.828 -138.593 178.142 -138.618 180.456 C-138.702 199.848 -135.963 220.426 -122.257 235.161 C-121.735 235.733 -121.213 236.306 -120.675 236.896 C-119.257 238.161 -119.257 238.161 -117.257 238.161 C-117.257 224.631 -117.257 211.101 -117.257 197.161 C-97.073 197.29 -97.073 197.29 -88.45 197.37 C-82.573 197.424 -76.696 197.475 -70.819 197.508 C-66.079 197.534 -61.34 197.574 -56.6 197.624 C-54.794 197.641 -52.989 197.652 -51.183 197.659 C-48.648 197.668 -46.114 197.696 -43.579 197.729 C-42.837 197.727 -42.096 197.726 -41.332 197.724 C-35.503 197.829 -30.192 199.077 -25.882 203.224 C-23.789 205.719 -23.137 207.234 -23.052 210.417 C-23.042 210.748 -23.042 210.748 -22.991 212.419 C-22.974 213.131 -22.958 213.842 -22.94 214.575 C-22.92 215.305 -22.899 216.034 -22.877 216.786 C-22.812 219.119 -22.753 221.453 -22.694 223.786 C-22.651 225.367 -22.608 226.948 -22.563 228.528 C-22.456 232.406 -22.355 236.283 -22.257 240.161 C-17.168 239.061 -15.346 236.183 -12.257 232.161 C-11.871 231.673 -11.486 231.184 -11.089 230.681 C-4.685 221.922 -4.113 211.24 -4.08 200.789 C-4.077 200.332 -4.077 200.332 -4.06 198.021 C-4.04 195.019 -4.029 192.016 -4.019 189.013 C-4.015 187.972 -4.01 186.931 -4.006 185.89 C-3.987 181 -3.973 176.11 -3.965 171.219 C-3.955 165.602 -3.928 159.985 -3.888 154.367 C-3.858 150.005 -3.843 145.644 -3.84 141.281 C-3.837 138.685 -3.829 136.089 -3.803 133.492 C-3.775 130.592 -3.78 127.693 -3.787 124.792 C-3.774 123.948 -3.761 123.103 -3.748 122.232 C-3.8 116.253 -5.091 111.287 -8.257 106.161 C-12.877 101.904 -17.279 101.012 -23.434 101 C-24.056 100.995 -24.677 100.99 -25.318 100.985 C-27.377 100.97 -29.436 100.964 -31.495 100.958 C-32.203 100.955 -32.911 100.952 -33.64 100.949 C-37.398 100.934 -41.155 100.925 -44.912 100.921 C-48.757 100.915 -52.602 100.892 -56.446 100.863 C-59.431 100.844 -62.416 100.839 -65.401 100.838 C-66.816 100.835 -68.231 100.827 -69.645 100.813 C-92.496 100.614 -110.781 106.644 -126.257 124.161 Z " fill="#25352D" transform="translate(198.2568359375,7.8388671875)"/>
<path d="M0 0 C0.575 0.002 1.15 0.004 1.743 0.007 C5.479 0.023 9.214 0.058 12.95 0.102 C14.983 0.126 17.016 0.144 19.049 0.163 C22.474 0.198 25.898 0.258 29.323 0.335 C30.641 0.361 31.96 0.382 33.279 0.395 C35.132 0.417 36.983 0.463 38.836 0.516 C39.108 0.516 39.108 0.516 40.487 0.519 C44.691 0.681 47.125 2.157 49.938 5.125 C52.718 9.679 52.163 14.776 52.062 19.938 C52.053 20.821 52.044 21.705 52.035 22.615 C52.012 24.785 51.979 26.955 51.938 29.125 C51.672 28.986 51.672 28.986 50.328 28.285 C49.622 27.923 48.915 27.561 48.188 27.188 C47.491 26.828 46.795 26.468 46.078 26.098 C42.013 24.251 38.211 23.965 33.792 23.92 C33.187 23.91 32.581 23.9 31.958 23.89 C29.967 23.858 27.976 23.833 25.984 23.809 C24.6 23.788 23.216 23.767 21.831 23.746 C18.195 23.691 14.558 23.641 10.922 23.593 C7.208 23.542 3.495 23.487 -0.219 23.432 C-7.5 23.324 -14.781 23.223 -22.062 23.125 C-22.15 20.021 -22.203 16.917 -22.25 13.812 C-22.275 12.931 -22.3 12.05 -22.326 11.143 C-22.336 10.295 -22.346 9.447 -22.355 8.574 C-22.371 7.794 -22.387 7.014 -22.403 6.21 C-21.977 3.602 -21.097 2.751 -19.062 1.125 C-13.294 -0.965 -6.076 -0.031 0 0 Z " fill="#66806A" transform="translate(124.0625,174.875)"/>
<path d="M0 0 C0.392 -0.006 0.392 -0.006 2.377 -0.038 C3.221 -0.036 4.065 -0.033 4.934 -0.03 C5.806 -0.035 6.678 -0.04 7.576 -0.045 C9.42 -0.052 11.264 -0.051 13.108 -0.042 C15.925 -0.033 18.739 -0.062 21.555 -0.094 C23.348 -0.096 25.141 -0.095 26.934 -0.092 C27.774 -0.103 28.614 -0.115 29.479 -0.126 C33.196 -0.082 36.031 -0.036 39.075 2.248 C42.057 5.476 42.192 7.757 42.165 12.072 C42.161 12.965 42.158 13.857 42.155 14.777 C42.151 15.241 42.151 15.241 42.129 17.592 C42.125 18.532 42.12 19.472 42.116 20.441 C42.104 22.762 42.087 25.083 42.067 27.404 C38.067 25.404 38.067 25.404 36.19 24.354 C33.898 23.329 32.345 23.131 29.849 23.085 C29.029 23.065 28.208 23.045 27.363 23.025 C26.486 23.013 25.61 23.002 24.708 22.99 C23.803 22.971 22.899 22.951 21.967 22.931 C19.084 22.872 16.2 22.825 13.317 22.779 C11.36 22.741 9.403 22.702 7.446 22.662 C2.653 22.566 -2.14 22.481 -6.933 22.404 C-7.02 19.3 -7.074 16.196 -7.121 13.092 C-7.146 12.21 -7.171 11.329 -7.197 10.422 C-7.206 9.574 -7.216 8.727 -7.226 7.853 C-7.242 7.073 -7.257 6.293 -7.274 5.489 C-6.579 1.234 -4.046 0.032 0 0 Z " fill="#DCE8C8" transform="translate(134.93310546875,146.595947265625)"/>
</svg>
